<?xml version="1.0" encoding="UTF-8" standalone="no"?>
<!-- Created with Inkscape (http://www.inkscape.org/) -->

<svg
   xmlns:dc="http://purl.org/dc/elements/1.1/"
   xmlns:cc="http://creativecommons.org/ns#"
   xmlns:rdf="http://www.w3.org/1999/02/22-rdf-syntax-ns#"
   xmlns:svg="http://www.w3.org/2000/svg"
   xmlns="http://www.w3.org/2000/svg"
   xmlns:sodipodi="http://sodipodi.sourceforge.net/DTD/sodipodi-0.dtd"
   xmlns:inkscape="http://www.inkscape.org/namespaces/inkscape"
   width="40"
   height="40"
   id="svg2985"
   version="1.1"
   inkscape:version="0.48.1 r9760"
   sodipodi:docname="g-1-elephant.svg">
  <defs
     id="defs2987" />
  <sodipodi:namedview
     id="base"
     pagecolor="#ffffff"
     bordercolor="#666666"
     borderopacity="1.0"
     inkscape:pageopacity="0.0"
     inkscape:pageshadow="2"
     inkscape:zoom="11"
     inkscape:cx="19.201845"
     inkscape:cy="19.77934"
     inkscape:current-layer="layer1"
     showgrid="true"
     inkscape:document-units="px"
     inkscape:grid-bbox="true"
     inkscape:snap-global="false"
     showguides="true"
     inkscape:guide-bbox="true"
     inkscape:window-width="1366"
     inkscape:window-height="737"
     inkscape:window-x="0"
     inkscape:window-y="1"
     inkscape:window-maximized="1"
     gridtolerance="10">
    <inkscape:grid
       type="xygrid"
       id="grid2993"
       empspacing="5"
       visible="true"
       enabled="true"
       snapvisiblegridlinesonly="true" />
  </sodipodi:namedview>
  <metadata
     id="metadata2990">
    <rdf:RDF>
      <cc:Work
         rdf:about="">
        <dc:format>image/svg+xml</dc:format>
        <dc:type
           rdf:resource="http://purl.org/dc/dcmitype/StillImage" />
        <dc:title />
      </cc:Work>
    </rdf:RDF>
  </metadata>
  <g
     id="layer1"
     inkscape:label="Layer 1"
     inkscape:groupmode="layer"
     transform="translate(0,-24)">
    <path
       sodipodi:nodetypes="csscsscc"
       inkscape:connector-curvature="0"
       id="back2"
       d="m 15.065678,31.62874 c 0,0 -10.4341695,0.144955 -11.8429095,1.806547 -0.601504,0.709464 -0.66403,1.614103 -0.615534,2.980371 0.0095,0.267441 1.866325,0.109889 3.248956,0.479698 -1.461007,0.503627 -3.095127,1.066253 -3.063076,1.23711 0.390495,2.081615 1.674465,8.009137 2.035471,8.483912 2.007827,2.640581 10.9225465,5.339999 10.9225465,5.339999 1.672727,-8.497454 -1.153818,-16.915273 -1.153818,-16.915273"
       style="fill:#ffffff;fill-opacity:1;stroke:#f0bd7f;stroke-width:5;stroke-linecap:butt;stroke-linejoin:miter;stroke-miterlimit:4;stroke-opacity:1;stroke-dasharray:none"
       inkscape:label="#path3796" />
    <path
       sodipodi:nodetypes="scccsssssssssssssss"
       inkscape:connector-curvature="0"
       id="back1"
       d="M 15.132586,30.022923 4.8954955,29.42074 6.7020405,57.054196 C 13.43894,56.290481 22.425678,50.497105 22.158041,50.564014 c 2.447291,4.434877 7.740766,8.16721 10.906181,6.958545 3.817847,-1.457784 4.708103,-6.71098 3.077819,-10.370909 -1.564985,-3.513332 -8.696679,-12.152153 -8.728418,-13.897494 -0.02302,-1.265774 1.263242,-2.470656 3.06825,-2.112383 0.851056,0.168925 2.131798,0.666933 3.114964,1.023077 0.32469,0.117617 0.07768,0.385595 0.163213,0.543706 0.162956,0.301215 1.189349,0.47863 1.58314,0.31023 0.436133,-0.186508 0.320175,-1.760429 0.459865,-2.000528 0.194321,-0.333998 1.185034,0.274417 1.3446,-0.01468 0.236413,-0.428337 -3.991699,-3.525741 -6.931347,-3.551196 -2.939647,-0.02546 -6.563219,1.059634 -7.135048,5.065782 -0.392507,2.74984 5.893112,10.390233 7.473871,13.696766 0.903891,1.890701 1.49509,4.583871 -0.167272,4.482908 -1.764434,-0.10716 -5.200134,-10.262101 -7.025454,-13.850182 -1.798973,-3.53629 -5.300614,-6.652421 -8.229819,-6.824727 z"
       style="fill:none;stroke:#f0bd7f;stroke-width:5;stroke-linecap:butt;stroke-linejoin:miter;stroke-miterlimit:4;stroke-opacity:1;stroke-dasharray:none"
       inkscape:label="#path3877" />
    <path
       sodipodi:nodetypes="ccscsc"
       inkscape:connector-curvature="0"
       id="back3"
       d="m 21.221314,47.218559 c 0,0 5.412481,9.440828 16.184843,13.522283 C 30.882521,60.205569 25.79553,58.26269 23.47806,56.522489 c -0.236181,-0.17735 -0.09506,-0.424916 0.05771,-1.085355 -0.733777,0.159199 -0.913066,0.42911 -1.181915,0.21456 -1.744581,-1.392229 -6.619092,-5.221499 -6.619092,-5.221499"
       style="fill:none;stroke:#f0bd7f;stroke-width:5;stroke-linecap:butt;stroke-linejoin:miter;stroke-miterlimit:4;stroke-opacity:1;stroke-dasharray:none"
       inkscape:label="#path3881" />
    <path
       style="fill:#f0bd7f;fill-opacity:1;stroke:#000000;stroke-width:1.5;stroke-linecap:butt;stroke-linejoin:miter;stroke-miterlimit:4;stroke-opacity:1;stroke-dasharray:none"
       d="M 15.132586,30.022923 4.8954955,29.42074 6.7020405,57.054196 C 13.43894,56.290481 22.425678,50.497105 22.158041,50.564014 c 2.447291,4.434877 7.740766,8.16721 10.906181,6.958545 3.817847,-1.457784 4.708103,-6.71098 3.077819,-10.370909 -1.564985,-3.513332 -8.696679,-12.152153 -8.728418,-13.897494 -0.02302,-1.265774 1.263242,-2.470656 3.06825,-2.112383 0.851056,0.168925 2.131798,0.666933 3.114964,1.023077 0.32469,0.117617 0.07768,0.385595 0.163213,0.543706 0.162956,0.301215 1.189349,0.47863 1.58314,0.31023 0.436133,-0.186508 0.320175,-1.760429 0.459865,-2.000528 0.194321,-0.333998 1.185034,0.274417 1.3446,-0.01468 0.236413,-0.428337 -3.991699,-3.525741 -6.931347,-3.551196 -2.939647,-0.02546 -6.563219,1.059634 -7.135048,5.065782 -0.392507,2.74984 5.893112,10.390233 7.473871,13.696766 0.903891,1.890701 1.49509,4.583871 -0.167272,4.482908 -1.764434,-0.10716 -5.200134,-10.262101 -7.025454,-13.850182 -1.798973,-3.53629 -5.300614,-6.652421 -8.229819,-6.824727 z"
       id="outline1"
       inkscape:connector-curvature="0"
       sodipodi:nodetypes="scccsssssssssssssss"
       inkscape:label="#path3762" />
    <path
       style="fill:#f0bd7f;fill-opacity:1;stroke:#000000;stroke-width:1.5;stroke-linecap:butt;stroke-linejoin:miter;stroke-miterlimit:4;stroke-opacity:1;stroke-dasharray:none"
       d="m 21.221314,47.218559 c 0,0 4.329493,9.40786 15.101857,13.489315 C 29.799535,60.172601 25.79553,58.26269 23.47806,56.522489 c -0.236181,-0.17735 -0.09506,-0.424916 0.05771,-1.085355 -0.733777,0.159199 -0.913066,0.42911 -1.181915,0.21456 -1.744581,-1.392229 -6.619092,-5.221499 -6.619092,-5.221499"
       id="outline3"
       inkscape:connector-curvature="0"
       sodipodi:nodetypes="ccscsc"
       inkscape:label="#path3802" />
    <path
       style="fill:none;stroke:#000000;stroke-width:1;stroke-linecap:butt;stroke-linejoin:miter;stroke-miterlimit:4;stroke-opacity:1;stroke-dasharray:none"
       d="m 22.021209,39.191497 c 0,0 -1.414026,-0.895763 -3.077819,-0.903272 -0.785617,-0.0035 -1.400967,0.148009 -1.40509,0.735999 -0.0029,0.402633 0.91436,0.860478 1.706181,0.869819 1.018987,0.01201 1.940364,-0.602183 1.940364,-0.602183"
       id="detail1"
       inkscape:connector-curvature="0"
       sodipodi:nodetypes="csssc"
       inkscape:label="#path3833" />
    <path
       style="fill:none;stroke:#000000;stroke-width:1;stroke-linecap:butt;stroke-linejoin:miter;stroke-miterlimit:4;stroke-opacity:1;stroke-dasharray:none"
       d="m 34.469313,28.751649 -0.802909,1.53891"
       id="detail18"
       inkscape:connector-curvature="0"
       inkscape:label="#path3835" />
    <path
       style="fill:none;stroke:#000000;stroke-width:1;stroke-linecap:butt;stroke-linejoin:miter;stroke-miterlimit:4;stroke-opacity:1;stroke-dasharray:none"
       d="m 30.923131,27.530559 -0.334545,1.722909"
       id="detail17"
       inkscape:connector-curvature="0"
       inkscape:label="#path3845" />
    <path
       style="fill:none;stroke:#000000;stroke-width:1;stroke-linecap:butt;stroke-linejoin:miter;stroke-miterlimit:4;stroke-opacity:1;stroke-dasharray:none"
       d="m 27.443859,27.865104 0.501819,1.421818"
       id="detail16"
       inkscape:connector-curvature="0"
       inkscape:label="#path3847" />
    <path
       style="fill:none;stroke:#000000;stroke-width:1;stroke-linecap:butt;stroke-linejoin:miter;stroke-miterlimit:4;stroke-opacity:1;stroke-dasharray:none"
       d="m 24.499859,29.588013 1.221091,0.98691"
       id="detail15"
       inkscape:connector-curvature="0"
       inkscape:label="#path3849" />
    <path
       style="fill:none;stroke:#000000;stroke-width:1;stroke-linecap:butt;stroke-linejoin:miter;stroke-miterlimit:4;stroke-opacity:1;stroke-dasharray:none"
       d="m 23.111495,32.314559 1.957091,0.30109"
       id="detail14"
       inkscape:connector-curvature="0"
       inkscape:label="#path3851" />
    <path
       style="fill:none;stroke:#000000;stroke-width:1;stroke-linecap:butt;stroke-linejoin:miter;stroke-miterlimit:4;stroke-opacity:1;stroke-dasharray:none"
       d="m 23.763859,34.840377 1.940364,-0.618909"
       id="detail13"
       inkscape:connector-curvature="0"
       sodipodi:nodetypes="cc"
       inkscape:label="#path3853" />
    <path
       style="fill:none;stroke:#000000;stroke-width:1;stroke-linecap:butt;stroke-linejoin:miter;stroke-miterlimit:4;stroke-opacity:1;stroke-dasharray:none"
       d="m 24.667132,36.764013 2.074182,-0.669091"
       id="detail12"
       inkscape:connector-curvature="0"
       inkscape:label="#path3855" />
    <path
       style="fill:none;stroke:#000000;stroke-width:1;stroke-linecap:butt;stroke-linejoin:miter;stroke-miterlimit:4;stroke-opacity:1;stroke-dasharray:none"
       d="m 25.938404,38.80474 1.973819,-0.802908"
       id="detail11"
       inkscape:connector-curvature="0"
       inkscape:label="#path3857" />
    <path
       style="fill:none;stroke:#000000;stroke-width:1;stroke-linecap:butt;stroke-linejoin:miter;stroke-miterlimit:4;stroke-opacity:1;stroke-dasharray:none"
       d="m 27.427132,41.07965 1.923637,-0.970182"
       id="detail10"
       inkscape:connector-curvature="0"
       sodipodi:nodetypes="cc"
       inkscape:label="#path3859" />
    <path
       style="fill:none;stroke:#000000;stroke-width:1;stroke-linecap:butt;stroke-linejoin:miter;stroke-miterlimit:4;stroke-opacity:1;stroke-dasharray:none"
       d="m 28.731859,42.936378 1.873454,-0.853091"
       id="detail9"
       inkscape:connector-curvature="0"
       inkscape:label="#path3861" />
    <path
       style="fill:none;stroke:#000000;stroke-width:1;stroke-linecap:butt;stroke-linejoin:miter;stroke-miterlimit:4;stroke-opacity:1;stroke-dasharray:none"
       d="m 30.32095,45.478923 2.040727,-0.869819"
       id="detail8"
       inkscape:connector-curvature="0"
       inkscape:label="#path3863" />
    <path
       style="fill:none;stroke:#000000;stroke-width:1;stroke-linecap:butt;stroke-linejoin:miter;stroke-miterlimit:4;stroke-opacity:1;stroke-dasharray:none"
       d="m 31.190768,47.854195 2.492363,-0.351272"
       id="detail7"
       inkscape:connector-curvature="0"
       inkscape:label="#path3865" />
    <path
       style="fill:none;stroke:#000000;stroke-width:1;stroke-linecap:butt;stroke-linejoin:miter;stroke-miterlimit:4;stroke-opacity:1;stroke-dasharray:none"
       d="m 31.408222,49.627287 2.458909,0.669091"
       id="detail6"
       inkscape:connector-curvature="0"
       inkscape:label="#path3867" />
    <path
       style="fill:none;stroke:#000000;stroke-width:1;stroke-linecap:butt;stroke-linejoin:miter;stroke-miterlimit:4;stroke-opacity:1;stroke-dasharray:none"
       d="m 30.87295,50.64765 0.736,2.810182"
       id="detail5"
       inkscape:connector-curvature="0"
       sodipodi:nodetypes="cc"
       inkscape:label="#path3869" />
    <path
       style="fill:none;stroke:#000000;stroke-width:1;stroke-linecap:butt;stroke-linejoin:miter;stroke-miterlimit:4;stroke-opacity:1;stroke-dasharray:none"
       d="m 29.534769,50.179287 -1.371637,2.709817"
       id="detail4"
       inkscape:connector-curvature="0"
       inkscape:label="#path3871" />
    <path
       style="fill:none;stroke:#000000;stroke-width:1;stroke-linecap:butt;stroke-linejoin:miter;stroke-miterlimit:4;stroke-opacity:1;stroke-dasharray:none"
       d="M 25.413458,45.637789 C 23.74073,44.968699 22.603276,42.660335 21.432367,42.62688"
       id="detail2"
       inkscape:connector-curvature="0"
       sodipodi:nodetypes="cc"
       inkscape:label="#path3873" />
    <path
       sodipodi:nodetypes="cc"
       inkscape:connector-curvature="0"
       id="detail3"
       d="M 25.336462,47.651211 C 23.663735,46.98212 22.292098,45.142119 21.121188,45.108665"
       style="fill:none;stroke:#000000;stroke-width:1;stroke-linecap:butt;stroke-linejoin:miter;stroke-miterlimit:4;stroke-opacity:1;stroke-dasharray:none"
       inkscape:label="#path3875" />
    <path
       style="fill:#f0bd7f;fill-opacity:1;stroke:#000000;stroke-width:1.5;stroke-linecap:butt;stroke-linejoin:miter;stroke-miterlimit:4;stroke-opacity:1;stroke-dasharray:none"
       d="m 15.065678,31.62874 c 0,0 -10.4341695,0.144955 -11.8429095,1.806547 -0.601504,0.709464 -0.66403,1.614103 -0.615534,2.980371 0.0095,0.267441 1.866325,0.109889 3.248956,0.479698 -1.461007,0.503627 -3.095127,1.066253 -3.063076,1.23711 0.390495,2.081615 1.674465,8.009137 2.035471,8.483912 2.007827,2.640581 10.9225465,5.339999 10.9225465,5.339999 1.672727,-8.497454 -1.153818,-16.915273 -1.153818,-16.915273"
       id="outline2"
       inkscape:connector-curvature="0"
       sodipodi:nodetypes="csscsscc"
       inkscape:label="#path3831" />
  </g>
</svg>
