<!-- Created with Inkscape (http://www.inkscape.org/) -->
<svg xmlns:dc="http://purl.org/dc/elements/1.1/" xmlns:cc="http://creativecommons.org/ns#" xmlns:rdf="http://www.w3.org/1999/02/22-rdf-syntax-ns#" xmlns:svg="http://www.w3.org/2000/svg" xmlns="http://www.w3.org/2000/svg" xmlns:sodipodi="http://sodipodi.sourceforge.net/DTD/sodipodi-0.dtd" xmlns:inkscape="http://www.inkscape.org/namespaces/inkscape" width="40" height="40" id="svg5992" version="1.1" inkscape:version="0.48.1 r9760" sodipodi:docname="b-5-cat.svg">
  <defs id="defs5994"/>
  <sodipodi:namedview id="base" pagecolor="#ffffff" bordercolor="#666666" borderopacity="1.0" inkscape:pageopacity="0.0" inkscape:pageshadow="2" inkscape:zoom="32" inkscape:cx="15.685918" inkscape:cy="18.582276" inkscape:current-layer="layer1" showgrid="true" inkscape:grid-bbox="true" inkscape:document-units="px" inkscape:window-width="1366" inkscape:window-height="737" inkscape:window-x="0" inkscape:window-y="1" inkscape:window-maximized="1" gridtolerance="10">
    <inkscape:grid type="xygrid" id="grid6000" empspacing="5" visible="true" enabled="true" snapvisiblegridlinesonly="true"/>
  </sodipodi:namedview>
  <metadata id="metadata5997">
    <rdf:RDF>
      <cc:Work rdf:about="">
        <dc:format>image/svg+xml</dc:format>
        <dc:type rdf:resource="http://purl.org/dc/dcmitype/StillImage"/>
        <dc:title/>
      </cc:Work>
    </rdf:RDF>
  </metadata>
  <g id="layer1" inkscape:label="Layer 1" inkscape:groupmode="layer" transform="translate(0,-8)">
    <path sodipodi:nodetypes="cc" inkscape:connector-curvature="0" id="back2" d="M 17.516724,34.613762 C 10.844501,34.133868 5.9939203,39 5.9939203,39" style="stroke-linejoin:miter;stroke-opacity:1;stroke:#878e94;stroke-linecap:butt;stroke-miterlimit:4;stroke-dasharray:none;stroke-width:3;fill:none;" inkscape:label="#path3783"/>
    <path sodipodi:nodetypes="cc" inkscape:connector-curvature="0" id="back3" d="m 19.636841,36.109946 c -4.771967,1.641557 -8.987122,8.28747 -8.987122,8.28747" style="stroke-linejoin:miter;stroke-opacity:1;stroke:#878e94;stroke-linecap:butt;stroke-miterlimit:4;stroke-dasharray:none;stroke-width:3;fill:none;" inkscape:label="#path3785"/>
    <path sodipodi:nodetypes="cc" inkscape:connector-curvature="0" id="back4" d="m 22.905163,36.909698 c -3.435764,3.209425 -5.198699,8.88396 -5.198699,8.88396" style="stroke-linejoin:miter;stroke-opacity:1;stroke:#878e94;stroke-linecap:butt;stroke-miterlimit:4;stroke-dasharray:none;stroke-width:3;fill:none;" inkscape:label="#path3787"/>
    <path sodipodi:nodetypes="ccsssssssc" inkscape:connector-curvature="0" id="back1" d="m 22.234081,16.37565 1,7 c -2.505325,0.504546 -3.268365,1.781559 -4.07673,2.943494 -1.333576,1.916866 -0.987418,3.451316 -1.428595,4.056506 -0.438525,0.601553 -1.989529,1.557234 -2.734835,2.110486 -0.745307,0.553253 -0.58664,1.26965 -0.454053,2.616223 0.132586,1.346572 1.887252,2.942274 2.824286,3.29853 C 18.413847,38.799977 28.556421,39.40625 30.993921,37 c 4.025723,-3.974111 0.914335,-11.128877 -0.265165,-12.62435 -1.741811,-2.20842 -8.494675,-8 -8.494675,-8 z" style="stroke-linejoin:miter;stroke-opacity:1;fill-opacity:1;stroke:#878e94;stroke-linecap:butt;stroke-miterlimit:4;stroke-dasharray:none;stroke-width:5;fill:#000000;" inkscape:label="#path3781"/>
    <path style="stroke-linejoin:miter;stroke-opacity:1;fill-opacity:1;stroke:#000000;stroke-linecap:butt;stroke-miterlimit:4;stroke-dasharray:none;stroke-width:1.5;fill:#878e94;" d="m 22.234081,16.37565 1,7 c -2.505325,0.504546 -3.268365,1.781559 -4.07673,2.943494 -1.333576,1.916866 -0.987418,3.451316 -1.428595,4.056506 -0.438525,0.601553 -1.989529,1.557234 -2.734835,2.110486 -0.745307,0.553253 -0.58664,1.26965 -0.454053,2.616223 0.132586,1.346572 1.887252,2.942274 2.824286,3.29853 C 18.413847,38.799977 28.556421,39.40625 30.993921,37 c 4.025723,-3.974111 0.914335,-11.128877 -0.265165,-12.62435 -1.741811,-2.20842 -8.494675,-8 -8.494675,-8 z" id="outline1" inkscape:connector-curvature="0" sodipodi:nodetypes="ccsssssssc" inkscape:label="#path3761"/>
    <path style="stroke-linejoin:miter;stroke-opacity:1;stroke:#000000;stroke-linecap:butt;stroke-miterlimit:4;stroke-dasharray:none;stroke-width:1;fill:none;" d="m 25.054688,21.681602 3.674068,3.694048 -3.065386,0 z" id="detail1" inkscape:connector-curvature="0" sodipodi:nodetypes="cccc" inkscape:label="#path3767"/>
    <path style="stroke-linejoin:miter;stroke-opacity:1;stroke:#000000;stroke-linecap:butt;stroke-miterlimit:4;stroke-dasharray:none;stroke-width:1;fill:none;" d="M 17.516724,34.613762 C 10.844501,34.133868 6.7755875,38.310464 6.7755875,38.310464" id="detail2" inkscape:connector-curvature="0" sodipodi:nodetypes="cc" inkscape:label="#path3769"/>
    <path style="stroke-linejoin:miter;stroke-opacity:1;stroke:#000000;stroke-linecap:butt;stroke-miterlimit:4;stroke-dasharray:none;stroke-width:1;fill:none;" d="m 19.636841,36.109946 c -4.771967,1.641557 -8.302479,7.345546 -8.302479,7.345546" id="detail3" inkscape:connector-curvature="0" sodipodi:nodetypes="cc" inkscape:label="#path3771"/>
    <path style="stroke-linejoin:miter;stroke-opacity:1;stroke:#000000;stroke-linecap:butt;stroke-miterlimit:4;stroke-dasharray:none;stroke-width:1;fill:none;" d="M 22.905163,36.909698 C 19.469399,40.119123 17.993921,45 17.993921,45" id="detail4" inkscape:connector-curvature="0" sodipodi:nodetypes="cc" inkscape:label="#path3773"/>
    <path style="stroke-linejoin:miter;stroke-opacity:1;stroke:#000000;stroke-linecap:butt;stroke-miterlimit:4;stroke-dasharray:none;stroke-width:1;fill:none;" d="m 21,30 c 1.345895,0 2.618068,-1 3,-2" id="detail5" inkscape:connector-curvature="0" sodipodi:nodetypes="cc" inkscape:label="#path3762"/>
  </g>
</svg>
