<!-- Created with Inkscape (http://www.inkscape.org/) -->
<svg xmlns:dc="http://purl.org/dc/elements/1.1/" xmlns:cc="http://creativecommons.org/ns#" xmlns:rdf="http://www.w3.org/1999/02/22-rdf-syntax-ns#" xmlns:svg="http://www.w3.org/2000/svg" xmlns="http://www.w3.org/2000/svg" xmlns:sodipodi="http://sodipodi.sourceforge.net/DTD/sodipodi-0.dtd" xmlns:inkscape="http://www.inkscape.org/namespaces/inkscape" width="40" height="40" id="svg4908" version="1.1" inkscape:version="0.48.1 r9760" sodipodi:docname="b-4-dog.svg">
  <defs id="defs4910"/>
  <sodipodi:namedview id="base" pagecolor="#ffffff" bordercolor="#666666" borderopacity="1.0" inkscape:pageopacity="0.0" inkscape:pageshadow="2" inkscape:zoom="32.000002" inkscape:cx="9.5445027" inkscape:cy="21.89833" inkscape:current-layer="layer1" showgrid="true" inkscape:grid-bbox="true" inkscape:document-units="px" inkscape:window-width="1366" inkscape:window-height="737" inkscape:window-x="0" inkscape:window-y="1" inkscape:window-maximized="1" gridtolerance="10">
    <inkscape:grid type="xygrid" id="grid4916" empspacing="5" visible="true" enabled="true" snapvisiblegridlinesonly="true"/>
  </sodipodi:namedview>
  <metadata id="metadata4913">
    <rdf:RDF>
      <cc:Work rdf:about="">
        <dc:format>image/svg+xml</dc:format>
        <dc:type rdf:resource="http://purl.org/dc/dcmitype/StillImage"/>
        <dc:title/>
      </cc:Work>
    </rdf:RDF>
  </metadata>
  <g id="layer1" inkscape:label="Layer 1" inkscape:groupmode="layer" transform="translate(0,-8)">
    <path inkscape:label="#path3762" style="stroke-linejoin:miter;stroke-opacity:1;fill-opacity:1;stroke:#969ca3;stroke-linecap:butt;stroke-miterlimit:4;stroke-dasharray:none;stroke-width:5;fill:#000000;" d="m 8.6123218,20.222049 c 2.1422662,-0.651364 5.6147152,-0.09548 7.1958542,-1.676618 0.999998,-1 2.795231,-2.969634 3.999998,-3.545431 1.345695,-0.643151 3.929315,-1 5.353553,-1 3,0 6,3.5 6,6.5 0,2.464286 0.535719,10.5 1,14.5 l -9,6 c -2,-4 -2.428571,-13.5 -2.428571,-13.5 0,0 -7.074495,3.588955 -7.38512,3.498763 C 12.922901,30.875321 11.386651,30 11.16173,29 c 1.851475,-0.646447 6.999997,-4 6.999997,-4 0,0 -5.893754,0.901923 -9.0000005,2e-6 0,0 -1.3274486,-3.692613 -0.5494048,-4.777953 z" id="back1" inkscape:connector-curvature="0" sodipodi:nodetypes="csssscccscccc"/>
    <path inkscape:label="#path2988" sodipodi:nodetypes="cc" inkscape:connector-curvature="0" id="back2" d="M 15.265625,28 C 12.597081,27.513864 8.15625,29.01294 6.6687342,30.65625" style="stroke-linejoin:miter;stroke-opacity:1;stroke:#969ca3;stroke-linecap:butt;stroke-miterlimit:4;stroke-dasharray:none;stroke-width:3;fill:none;"/>
    <path style="stroke-linejoin:miter;stroke-opacity:1;stroke:#000000;stroke-linecap:butt;stroke-width:1px;fill:none;" d="M 15.265625,28 C 12.597081,27.513864 8.9375,28.35669 7.4499842,30" id="detail4" inkscape:connector-curvature="0" sodipodi:nodetypes="cc" inkscape:label="#path2988"/>
    <path sodipodi:nodetypes="csssscccscccc" inkscape:connector-curvature="0" id="outline1" d="m 8.6123218,20.222049 c 2.1422662,-0.651364 5.6147152,-0.09548 7.1958542,-1.676618 0.999998,-1 2.795231,-2.969634 3.999998,-3.545431 1.345695,-0.643151 3.929315,-1 5.353553,-1 3,0 6,3.5 6,6.5 0,2.464286 0.535719,10.5 1,14.5 l -9,6 c -2,-4 -2.428571,-13.5 -2.428571,-13.5 0,0 -7.074495,3.588955 -7.38512,3.498763 C 12.922901,30.875321 11.386651,30 11.16173,29 c 1.851475,-0.646447 6.999997,-4 6.999997,-4 0,0 -5.893754,0.901923 -9.0000005,2e-6 0,0 -1.3274486,-3.692613 -0.5494048,-4.777953 z" style="stroke-linejoin:miter;stroke-opacity:1;fill-opacity:1;stroke:#000000;stroke-linecap:butt;stroke-miterlimit:4;stroke-dasharray:none;stroke-width:1.5;fill:#969ca3;" inkscape:label="#path3762"/>
    <path style="stroke-linejoin:miter;stroke-opacity:1;stroke:#000000;stroke-linecap:butt;stroke-miterlimit:4;stroke-dasharray:none;stroke-width:1;fill:none;" d="m 24.161728,17.555584 c 0,0 -2.429315,5.444416 -0.429315,7.444416 1,1 2.429315,1 3.429315,0 2,-2 -0.570686,-7.444416 -0.570686,-7.444416" id="detail1" inkscape:connector-curvature="0" sodipodi:nodetypes="cssc" inkscape:label="#path5430"/>
    <path style="stroke-linejoin:miter;stroke-opacity:1;stroke:#000000;stroke-linecap:butt;stroke-miterlimit:4;stroke-dasharray:none;stroke-width:0.56;fill:none;" d="m 11.808635,21.257456 c -0.460926,-0.141565 -1.014265,-0.01846 -1.166743,0.438973 -0.152476,0.457433 0.03766,1.501749 0.519838,1.501749 0.492089,0 0.305956,-0.629411 0.646905,-0.970361 0.323454,-0.323453 0.646908,-0.771675 0,-0.970361 z" id="detail3" inkscape:connector-curvature="0" sodipodi:nodetypes="sssss" inkscape:label="#path3758"/>
    <path style="stroke-linejoin:miter;stroke-opacity:1;stroke:#000000;stroke-linecap:butt;stroke-width:1px;fill:none;" d="m 17.956156,19.719622 c 1.3774,-1.190276 2.612617,-1.364753 3.751411,-0.227855" id="detail2" inkscape:connector-curvature="0" inkscape:label="#path2987" sodipodi:nodetypes="cc"/>
  </g>
</svg>
