<!-- Created with Inkscape (http://www.inkscape.org/) -->
<svg xmlns:dc="http://purl.org/dc/elements/1.1/" xmlns:cc="http://creativecommons.org/ns#" xmlns:rdf="http://www.w3.org/1999/02/22-rdf-syntax-ns#" xmlns:svg="http://www.w3.org/2000/svg" xmlns="http://www.w3.org/2000/svg" xmlns:sodipodi="http://sodipodi.sourceforge.net/DTD/sodipodi-0.dtd" xmlns:inkscape="http://www.inkscape.org/namespaces/inkscape" width="40" height="40" id="svg2985" version="1.1" inkscape:version="0.48.1 r9760" sodipodi:docname="b-1-elephant.svg">
  <defs id="defs2987"/>
  <sodipodi:namedview id="base" pagecolor="#ffffff" bordercolor="#666666" borderopacity="1.0" inkscape:pageopacity="0.0" inkscape:pageshadow="2" inkscape:zoom="11" inkscape:cx="19.201845" inkscape:cy="19.77934" inkscape:current-layer="layer1" showgrid="true" inkscape:document-units="px" inkscape:grid-bbox="true" inkscape:snap-global="false" showguides="true" inkscape:guide-bbox="true" inkscape:window-width="1366" inkscape:window-height="737" inkscape:window-x="0" inkscape:window-y="1" inkscape:window-maximized="1" gridtolerance="10">
    <inkscape:grid type="xygrid" id="grid2993" empspacing="5" visible="true" enabled="true" snapvisiblegridlinesonly="true"/>
  </sodipodi:namedview>
  <metadata id="metadata2990">
    <rdf:RDF>
      <cc:Work rdf:about="">
        <dc:format>image/svg+xml</dc:format>
        <dc:type rdf:resource="http://purl.org/dc/dcmitype/StillImage"/>
        <dc:title/>
      </cc:Work>
    </rdf:RDF>
  </metadata>
  <g id="layer1" inkscape:label="Layer 1" inkscape:groupmode="layer" transform="translate(0,-24)">
    <path sodipodi:nodetypes="csscsscc" inkscape:connector-curvature="0" id="back2" d="m 24.934698,31.62874 c 0,0 10.434169,0.144955 11.842909,1.806547 0.601504,0.709464 0.66403,1.614103 0.615534,2.980371 -0.0095,0.267441 -1.866325,0.109889 -3.248956,0.479698 1.461007,0.503627 3.095127,1.066253 3.063076,1.23711 -0.390495,2.081615 -1.674465,8.009137 -2.035471,8.483912 -2.007827,2.640581 -10.922546,5.339999 -10.922546,5.339999 -1.672727,-8.497454 1.153818,-16.915273 1.153818,-16.915273" style="stroke-linejoin:miter;stroke-opacity:1;fill-opacity:1;stroke:#b2bac2;stroke-linecap:butt;stroke-miterlimit:4;stroke-dasharray:none;stroke-width:5;fill:#ffffff;" inkscape:label="#path3796"/>
    <path sodipodi:nodetypes="scccsssssssssssssss" inkscape:connector-curvature="0" id="back1" d="M 24.86779,30.022923 35.10488,29.42074 33.298335,57.054196 c -6.736899,-0.763715 -15.723637,-6.557091 -15.456,-6.490182 -2.447291,4.434877 -7.740766,8.16721 -10.906181,6.958545 C 3.118307,56.064775 2.228051,50.811579 3.858335,47.15165 5.42332,43.638318 12.555014,34.999497 12.586753,33.254156 12.609773,31.988382 11.323511,30.7835 9.518503,31.141773 8.667447,31.310698 7.386705,31.808706 6.403539,32.16485 6.078849,32.282467 6.325859,32.550445 6.240326,32.708556 6.07737,33.009771 5.050977,33.187186 4.657186,33.018786 4.221053,32.832278 4.337011,31.258357 4.197321,31.018258 4.003,30.68426 3.012287,31.292675 2.852721,31.003578 2.616308,30.575241 6.84442,27.477837 9.784068,27.452382 c 2.939647,-0.02546 6.563219,1.059634 7.135048,5.065782 0.392507,2.74984 -5.893112,10.390233 -7.473871,13.696766 -0.903891,1.890701 -1.49509,4.583871 0.167272,4.482908 1.764434,-0.10716 5.200134,-10.262101 7.025454,-13.850182 1.798973,-3.53629 5.300614,-6.652421 8.229819,-6.824727 z" style="stroke-linejoin:miter;stroke-opacity:1;stroke:#b2bac2;stroke-linecap:butt;stroke-miterlimit:4;stroke-dasharray:none;stroke-width:5;fill:none;" inkscape:label="#path3877"/>
    <path sodipodi:nodetypes="ccscsc" inkscape:connector-curvature="0" id="back3" d="m 18.779062,47.218559 c 0,0 -5.412481,9.440828 -16.184843,13.522283 6.523636,-0.535273 11.610627,-2.478152 13.928097,-4.218353 0.236181,-0.17735 0.09506,-0.424916 -0.05771,-1.085355 0.733777,0.159199 0.913066,0.42911 1.181915,0.21456 1.744581,-1.392229 6.619092,-5.221499 6.619092,-5.221499" style="stroke-linejoin:miter;stroke-opacity:1;stroke:#b2bac2;stroke-linecap:butt;stroke-miterlimit:4;stroke-dasharray:none;stroke-width:5;fill:none;" inkscape:label="#path3881"/>
    <path style="stroke-linejoin:miter;stroke-opacity:1;fill-opacity:1;stroke:#000000;stroke-linecap:butt;stroke-miterlimit:4;stroke-dasharray:none;stroke-width:1.50000000000000000;fill:#b2bac2;" d="M 24.86779,30.022923 35.10488,29.42074 33.298335,57.054196 c -6.736899,-0.763715 -15.723637,-6.557091 -15.456,-6.490182 -2.447291,4.434877 -7.740766,8.16721 -10.906181,6.958545 C 3.118307,56.064775 2.228051,50.811579 3.858335,47.15165 5.42332,43.638318 12.555014,34.999497 12.586753,33.254156 12.609773,31.988382 11.323511,30.7835 9.518503,31.141773 8.667447,31.310698 7.386705,31.808706 6.403539,32.16485 6.078849,32.282467 6.325859,32.550445 6.240326,32.708556 6.07737,33.009771 5.050977,33.187186 4.657186,33.018786 4.221053,32.832278 4.337011,31.258357 4.197321,31.018258 4.003,30.68426 3.012287,31.292675 2.852721,31.003578 2.616308,30.575241 6.84442,27.477837 9.784068,27.452382 c 2.939647,-0.02546 6.563219,1.059634 7.135048,5.065782 0.392507,2.74984 -5.893112,10.390233 -7.473871,13.696766 -0.903891,1.890701 -1.49509,4.583871 0.167272,4.482908 1.764434,-0.10716 5.200134,-10.262101 7.025454,-13.850182 1.798973,-3.53629 5.300614,-6.652421 8.229819,-6.824727 z" id="outline1" inkscape:connector-curvature="0" sodipodi:nodetypes="scccsssssssssssssss" inkscape:label="#path3762"/>
    <path style="stroke-linejoin:miter;stroke-opacity:1;fill-opacity:1;stroke:#000000;stroke-linecap:butt;stroke-miterlimit:4;stroke-dasharray:none;stroke-width:1.50000000000000000;fill:#b2bac2;" d="m 18.779062,47.218559 c 0,0 -4.329493,9.40786 -15.101857,13.489315 6.523636,-0.535273 10.527641,-2.445184 12.845111,-4.185385 0.236181,-0.17735 0.09506,-0.424916 -0.05771,-1.085355 0.733777,0.159199 0.913066,0.42911 1.181915,0.21456 1.744581,-1.392229 6.619092,-5.221499 6.619092,-5.221499" id="outline3" inkscape:connector-curvature="0" sodipodi:nodetypes="ccscsc" inkscape:label="#path3802"/>
    <path style="stroke-linejoin:miter;stroke-opacity:1;stroke:#000000;stroke-linecap:butt;stroke-miterlimit:4;stroke-dasharray:none;stroke-width:1;fill:none;" d="m 17.979167,39.191497 c 0,0 1.414026,-0.895763 3.077819,-0.903272 0.785617,-0.0035 1.400967,0.148009 1.40509,0.735999 0.0029,0.402633 -0.91436,0.860478 -1.706181,0.869819 -1.018987,0.01201 -1.940364,-0.602183 -1.940364,-0.602183" id="detail1" inkscape:connector-curvature="0" sodipodi:nodetypes="csssc" inkscape:label="#path3833"/>
    <path style="stroke-linejoin:miter;stroke-opacity:1;stroke:#000000;stroke-linecap:butt;stroke-miterlimit:4;stroke-dasharray:none;stroke-width:1;fill:none;" d="m 5.531063,28.751649 0.802909,1.53891" id="detail18" inkscape:connector-curvature="0" inkscape:label="#path3835"/>
    <path style="stroke-linejoin:miter;stroke-opacity:1;stroke:#000000;stroke-linecap:butt;stroke-miterlimit:4;stroke-dasharray:none;stroke-width:1;fill:none;" d="M 9.077245,27.530559 9.41179,29.253468" id="detail17" inkscape:connector-curvature="0" inkscape:label="#path3845"/>
    <path style="stroke-linejoin:miter;stroke-opacity:1;stroke:#000000;stroke-linecap:butt;stroke-miterlimit:4;stroke-dasharray:none;stroke-width:1;fill:none;" d="m 12.556517,27.865104 -0.501819,1.421818" id="detail16" inkscape:connector-curvature="0" inkscape:label="#path3847"/>
    <path style="stroke-linejoin:miter;stroke-opacity:1;stroke:#000000;stroke-linecap:butt;stroke-miterlimit:4;stroke-dasharray:none;stroke-width:1;fill:none;" d="m 15.500517,29.588013 -1.221091,0.98691" id="detail15" inkscape:connector-curvature="0" inkscape:label="#path3849"/>
    <path style="stroke-linejoin:miter;stroke-opacity:1;stroke:#000000;stroke-linecap:butt;stroke-miterlimit:4;stroke-dasharray:none;stroke-width:1;fill:none;" d="m 16.888881,32.314559 -1.957091,0.30109" id="detail14" inkscape:connector-curvature="0" inkscape:label="#path3851"/>
    <path style="stroke-linejoin:miter;stroke-opacity:1;stroke:#000000;stroke-linecap:butt;stroke-miterlimit:4;stroke-dasharray:none;stroke-width:1;fill:none;" d="M 16.236517,34.840377 14.296153,34.221468" id="detail13" inkscape:connector-curvature="0" sodipodi:nodetypes="cc" inkscape:label="#path3853"/>
    <path style="stroke-linejoin:miter;stroke-opacity:1;stroke:#000000;stroke-linecap:butt;stroke-miterlimit:4;stroke-dasharray:none;stroke-width:1;fill:none;" d="M 15.333244,36.764013 13.259062,36.094922" id="detail12" inkscape:connector-curvature="0" inkscape:label="#path3855"/>
    <path style="stroke-linejoin:miter;stroke-opacity:1;stroke:#000000;stroke-linecap:butt;stroke-miterlimit:4;stroke-dasharray:none;stroke-width:1;fill:none;" d="M 14.061972,38.80474 12.088153,38.001832" id="detail11" inkscape:connector-curvature="0" inkscape:label="#path3857"/>
    <path style="stroke-linejoin:miter;stroke-opacity:1;stroke:#000000;stroke-linecap:butt;stroke-miterlimit:4;stroke-dasharray:none;stroke-width:1;fill:none;" d="M 12.573244,41.07965 10.649607,40.109468" id="detail10" inkscape:connector-curvature="0" sodipodi:nodetypes="cc" inkscape:label="#path3859"/>
    <path style="stroke-linejoin:miter;stroke-opacity:1;stroke:#000000;stroke-linecap:butt;stroke-miterlimit:4;stroke-dasharray:none;stroke-width:1;fill:none;" d="M 11.268517,42.936378 9.395063,42.083287" id="detail9" inkscape:connector-curvature="0" inkscape:label="#path3861"/>
    <path style="stroke-linejoin:miter;stroke-opacity:1;stroke:#000000;stroke-linecap:butt;stroke-miterlimit:4;stroke-dasharray:none;stroke-width:1;fill:none;" d="M 9.679426,45.478923 7.638699,44.609104" id="detail8" inkscape:connector-curvature="0" inkscape:label="#path3863"/>
    <path style="stroke-linejoin:miter;stroke-opacity:1;stroke:#000000;stroke-linecap:butt;stroke-miterlimit:4;stroke-dasharray:none;stroke-width:1;fill:none;" d="M 8.809608,47.854195 6.317245,47.502923" id="detail7" inkscape:connector-curvature="0" inkscape:label="#path3865"/>
    <path style="stroke-linejoin:miter;stroke-opacity:1;stroke:#000000;stroke-linecap:butt;stroke-miterlimit:4;stroke-dasharray:none;stroke-width:1;fill:none;" d="M 8.592154,49.627287 6.133245,50.296378" id="detail6" inkscape:connector-curvature="0" inkscape:label="#path3867"/>
    <path style="stroke-linejoin:miter;stroke-opacity:1;stroke:#000000;stroke-linecap:butt;stroke-miterlimit:4;stroke-dasharray:none;stroke-width:1;fill:none;" d="m 9.127426,50.64765 -0.736,2.810182" id="detail5" inkscape:connector-curvature="0" sodipodi:nodetypes="cc" inkscape:label="#path3869"/>
    <path style="stroke-linejoin:miter;stroke-opacity:1;stroke:#000000;stroke-linecap:butt;stroke-miterlimit:4;stroke-dasharray:none;stroke-width:1;fill:none;" d="m 10.465607,50.179287 1.371637,2.709817" id="detail4" inkscape:connector-curvature="0" inkscape:label="#path3871"/>
    <path style="stroke-linejoin:miter;stroke-opacity:1;stroke:#000000;stroke-linecap:butt;stroke-miterlimit:4;stroke-dasharray:none;stroke-width:1;fill:none;" d="m 14.586918,45.637789 c 1.672728,-0.66909 2.810182,-2.977454 3.981091,-3.010909" id="detail2" inkscape:connector-curvature="0" sodipodi:nodetypes="cc" inkscape:label="#path3873"/>
    <path sodipodi:nodetypes="cc" inkscape:connector-curvature="0" id="detail3" d="m 14.663914,47.651211 c 1.672727,-0.669091 3.044364,-2.509092 4.215274,-2.542546" style="stroke-linejoin:miter;stroke-opacity:1;stroke:#000000;stroke-linecap:butt;stroke-miterlimit:4;stroke-dasharray:none;stroke-width:1;fill:none;" inkscape:label="#path3875"/>
    <path style="stroke-linejoin:miter;stroke-opacity:1;fill-opacity:1;stroke:#000000;stroke-linecap:butt;stroke-miterlimit:4;stroke-dasharray:none;stroke-width:1.50000000000000000;fill:#b2bac2;" d="m 24.934698,31.62874 c 0,0 10.434169,0.144955 11.842909,1.806547 0.601504,0.709464 0.66403,1.614103 0.615534,2.980371 -0.0095,0.267441 -1.866325,0.109889 -3.248956,0.479698 1.461007,0.503627 3.095127,1.066253 3.063076,1.23711 -0.390495,2.081615 -1.674465,8.009137 -2.035471,8.483912 -2.007827,2.640581 -10.922546,5.339999 -10.922546,5.339999 -1.672727,-8.497454 1.153818,-16.915273 1.153818,-16.915273" id="outline2" inkscape:connector-curvature="0" sodipodi:nodetypes="csscsscc" inkscape:label="#path3831"/>
  </g>
</svg>
